<svg width="11" height="17" viewBox="0 0 11 17" fill="none" xmlns="http://www.w3.org/2000/svg">
<path fill-rule="evenodd" clip-rule="evenodd" d="M6.83618 0.273631L6.87156 2.31099C8.49325 1.27975 9.7918 0.839375 9.95943 2.20676C10.0134 2.61918 9.97844 3.11918 9.75461 3.6897C9.5634 4.18028 9.1864 4.70926 8.8612 5.15051C8.47245 5.6833 8.04671 6.18206 7.59869 6.62957C7.29685 6.9241 7.00087 7.20342 6.69195 7.47642C6.19389 7.92377 5.68406 8.37387 5.17623 8.75566C5.11559 8.8005 5.05647 8.84521 4.99868 8.88891L4.99863 8.88895C4.90359 8.96082 4.81213 9.02998 4.7234 9.09254L4.76745 11.8344L4.76378 13.3588L4.80171 15.4038L3.54238 16.3192L3.50866 14.251C3.37684 14.3457 3.24276 14.4407 3.1077 14.5365L3.10763 14.5365C2.94081 14.6547 2.77248 14.774 2.60503 14.8951L0.966079 16.0861L1.19523 14.4263C1.19523 14.4263 2.12815 13.7639 2.11383 13.7589C2.47326 13.4935 2.55612 13.1749 2.58013 12.9999L2.53722 10.1898L2.51926 8.88634L2.49686 7.38745C2.44779 7.16923 2.27421 6.9967 1.76316 7.37143C1.77863 7.34685 0.844739 8.03941 0.844739 8.03941L0.819697 6.71442L2.5544 5.45916C2.69967 5.35325 2.84392 5.24592 2.98965 5.1375L2.98967 5.13749C3.11081 5.04735 3.23297 4.95647 3.35756 4.86502L3.32218 2.82765L4.5815 1.91232L4.61706 3.91161L4.82235 3.75869L4.82237 3.75868C5.08662 3.56168 5.35464 3.36187 5.6181 3.17249L5.57598 1.18908L6.83618 0.273631ZM8.65564 6.60017C8.96652 6.24028 9.32717 5.74834 9.57761 5.38181C9.58083 5.37404 9.58694 5.36574 9.59301 5.35751C9.59918 5.34913 9.6053 5.34082 9.60823 5.33324C10.3576 5.17557 10.879 5.59729 10.7806 6.88608C10.6382 8.95954 9.17541 10.5444 7.08791 12.1755L7.12172 14.2177L5.88411 15.1141L5.83833 13.1772L5.83965 13.1104L5.81268 11.6146C6.91063 10.7895 8.34826 9.54758 8.32606 8.42322C8.31522 7.82368 7.93241 7.75522 7.41316 7.94217L7.86337 7.47459C8.18463 7.14349 8.34389 6.96018 8.65546 6.59963L8.65564 6.60017ZM4.79664 5.17342C5.67639 4.51991 7.39643 3.24219 7.41756 4.51538C7.44137 5.77902 5.57425 7.09625 4.73414 7.68893C4.66262 7.73939 4.59854 7.7846 4.54371 7.82407L4.50261 5.38904C4.58285 5.33224 4.68269 5.25807 4.79664 5.17342Z" fill="#FEFEFE"/>
</svg>
