<svg width="379" height="194" viewBox="0 0 379 194" fill="none" xmlns="http://www.w3.org/2000/svg">
<path d="M197.189 12.9032C203.397 9.24882 208.018 6.53017 212.092 4.63313C216.154 2.74193 219.624 1.69185 223.516 1.34951C227.408 1.00717 231.262 1.41307 236.115 2.52011C240.983 3.63058 246.796 5.43156 254.607 7.85275L337.425 33.5215C350.269 37.5024 359.842 40.4705 366.46 43.295C373.065 46.114 376.622 48.7476 377.576 52.0389C378.531 55.3302 376.652 58.4891 371.998 62.3962C367.334 66.3109 359.957 70.917 350.058 77.0958L184.734 180.292C178.215 184.36 173.364 187.388 169.064 189.489C164.776 191.584 161.092 192.731 156.924 193.068C152.756 193.405 148.667 192.888 143.548 191.554C138.413 190.216 132.306 188.075 124.102 185.198L38.6149 155.215C26.4267 150.94 17.3436 147.754 11.1159 144.792C4.90081 141.835 1.62575 139.147 0.918286 135.885C0.210821 132.623 2.2365 129.552 6.9971 125.802C11.7674 122.045 19.209 117.663 29.1951 111.785L197.189 12.9032Z" fill="url(#paint0_linear_3_221)" stroke="url(#paint1_linear_3_221)"/>
<defs>
<linearGradient id="paint0_linear_3_221" x1="338.598" y1="-98.1314" x2="214.078" y2="276.635" gradientUnits="userSpaceOnUse">
<stop stop-color="white" stop-opacity="0.7"/>
<stop offset="0.667914" stop-color="#F9F9F9" stop-opacity="0.175336"/>
<stop offset="1" stop-color="#F9F9F9" stop-opacity="0.1"/>
<stop offset="1" stop-color="white" stop-opacity="0.2"/>
</linearGradient>
<linearGradient id="paint1_linear_3_221" x1="213.742" y1="26.8979" x2="181.353" y2="265.95" gradientUnits="userSpaceOnUse">
<stop stop-color="white"/>
<stop offset="1" stop-color="white" stop-opacity="0.1"/>
</linearGradient>
</defs>
</svg>
